<?xml version="1.0" encoding="utf-8"?>
<!-- Generator: Adobe Illustrator 21.1.0, SVG Export Plug-In . SVG Version: 6.00 Build 0)  -->
<svg version="1.1" id="Ebene_1" xmlns="http://www.w3.org/2000/svg" xmlns:xlink="http://www.w3.org/1999/xlink" x="0px" y="0px"
	 width="80px" height="80px" viewBox="0 0 80 80" style="enable-background:new 0 0 80 80;" xml:space="preserve">
<style type="text/css">
	.spinnerstandard1{opacity:0.3;}
	.spinnerstandard2{fill:#005EA8;}
</style>
<path class="spinnerstandard1" opacity="0.3" d="M40,0C17.9,0,0,17.9,0,40c0,22.1,17.9,40,40,40s40-17.9,40-40C80,17.9,62.1,0,40,0z M40,70
	c-16.6,0-30-13.4-30-30s13.4-30,30-30s30,13.4,30,30S56.6,70,40,70z"/>
<path class="spinnerstandard2" fill="#005EA8" d="M0,40h10c0-16.6,13.4-30,30-30V0C17.9,0,0,17.9,0,40z"/>
</svg>
